<svg id="Layer_1" data-name="Layer 1" xmlns="http://www.w3.org/2000/svg" xmlns:xlink="http://www.w3.org/1999/xlink" viewBox="0 0 635.93 635.93"><defs><style>.cls-1{fill:url(#linear-gradient);filter:url(#AI_Shadow_2);}</style><linearGradient id="linear-gradient" x1="271.98" y1="301.53" x2="721.66" y2="751.2" gradientUnits="userSpaceOnUse"><stop offset="0" stop-color="#07ffdc"/><stop offset="1" stop-color="#3bcbff"/></linearGradient><filter id="AI_Shadow_2" x="-15%" y="-15%" width="140%" height="130%" name="AI_Shadow_2"><feGaussianBlur result="blur" stdDeviation="6" in="SourceAlpha"/><feOffset result="offsetBlurredAlpha" dx="8" dy="8" in="blur"/><feMerge><feMergeNode in="offsetBlurredAlpha"/><feMergeNode in="SourceGraphic"/></feMerge></filter></defs><path class="cls-1" d="M496.82,208.4c-175.62,0-318,142.35-318,318s142.35,318,318,318,318-142.35,318-318S672.43,208.4,496.82,208.4ZM670.23,653.06a32.85,32.85,0,0,1-32.76,32.76H615.61a32.85,32.85,0,0,1-32.76-32.76V539.79H558.1c0,6.39.06,12.07,0,17.73-.1,8.68-2.39,14.65-5.64,15s-6-5.71-6.21-14.63c-.08-2.75,0-5.53,0-8.29v-8.89h-7c0,11.55,0,23.07,0,34.57,0,10.49-2.27,16.93-5.87,17s-6-6.45-6-16.75c0-11.52,0-23.06,0-35h-7V581c0,5.8.06,11.61,0,17.41-.13,9.54-2.67,16-6.12,15.76s-5.73-6.44-5.76-15.65c-.06-19,0-38.09,0-58.09h-7c0,8.83,0,17.32,0,25.78-.05,10.59-2.23,16.9-5.88,17.08-3.86.18-6-5.88-6-17.2,0-7.73,0-15.47-.06-23.21a20.23,20.23,0,0,0-.28-2.19h-6.73c0,11.94.08,23.74,0,35.52-.07,8.91-2,14.45-5,15.46-3.85,1.28-6.73-4.38-6.85-14.29-.16-12.08,0-24.2,0-36.82h-7c0,5.36.08,10.52,0,15.66-.19,10.28-2.7,16.69-6.29,16.31s-5.52-6.45-5.61-16.71c-.05-4.91,0-9.82,0-15.26h-7.19c0,10.84,0,21.28,0,31.71s-2.29,17-5.86,17-6-6.67-6-16.94c-.06-10.44,0-20.88,0-31.82h-7c0,5.82.08,11.54,0,17.25-.15,8.79-2.47,14.54-5.74,14.72s-5.76-5.45-6.13-14c-.14-3-.06-6.07-.06-9.11,0-2.73,0-5.44,0-9.33H400.38v113a32.85,32.85,0,0,1-32.76,32.76H345.76A32.85,32.85,0,0,1,313,653.06V398.14a32.85,32.85,0,0,1,32.76-32.76h21.86a32.85,32.85,0,0,1,32.76,32.76V534.05c6.14-.21,12.29-.06,18.44-.06h4c.37-11.2-.21-23.69,6.47-23.83,3.88-.08,4.92,4.18,6.06,23.39,1,.14,2,.37,3,.43s2.09,0,3.69,0c0-9,0-17.41,0-25.85,0-10.39,2.36-16.57,6.09-16.34,3.57.21,5.75,6.25,5.78,16.29,0,8.23,0,16.47,0,25.29h7V511.59c0-9.66-.12-19.35.08-29,.15-8.29,3-14.15,6.17-13.8s5.56,6,5.63,14.18c.1,16.52,0,33.06,0,50.32h7c0-7.9,0-15.56,0-23.24,0-11.75,2.24-18.35,6.09-18.25s5.77,6.21,5.78,17.78q0,10.79.08,21.54a22.08,22.08,0,0,0,.3,2.2h6.72V520.06c0-22.66-.06-45.32.07-68,.05-9.35,2.57-15.14,6-15.06s5.65,5.77,5.83,15.3c.06,2.49,0,5,0,7.46v73.51h7V515.64c0-11.05-.1-22.11.08-33.15.15-9.2,2.71-15.25,6-15.21s5.78,6,5.87,15.37c.14,13.81.06,27.63.06,41.46,0,2.94,0,5.9,0,9.36h7.17c0-12.23-.07-24.27,0-36.31.08-7.49,2.14-11.63,5-12.77,2.66-1.06,4.87,1.93,6,7.73a60.27,60.27,0,0,1,.79,10.44c.11,10.15,0,20.31,0,30.94h7c0-8.43,0-16.63,0-24.82.05-10.77,2.19-16.85,5.85-16.89s5.93,6.25,6,16.75c.08,7.74.08,15.46.12,23.19,0,.25.08.51.35,2.26,4.75,0,9.71-.12,14.7.06V398.14a32.85,32.85,0,0,1,32.76-32.76h21.86a32.85,32.85,0,0,1,32.76,32.76Z" transform="translate(-178.85 -208.4)"/></svg>