<svg xmlns="http://www.w3.org/2000/svg" fill="curentColor" xmlns:xlink="http://www.w3.org/1999/xlink" 
viewBox="0 0 829.64119 829.64119"><defs><linearGradient id="linear-gradient" x1="207.37813" y1="55.5197" x2="622.26306" y2="774.12148" gradientUnits="userSpaceOnUse"><stop offset="0" stop-color="#07ffdc"/><stop offset="1" stop-color="#30d6f8"/></linearGradient>
<linearGradient id="linear-gradient-2" x1="267.47184" y1="267.97183" x2="562.16935" y2="562.66934" gradientUnits="userSpaceOnUse"><stop offset="0" stop-color="#07ffdc"/><stop offset="1" stop-color="#3bcbff"/></linearGradient></defs>
<g id="Layer_2" data-name="Layer 2"><g id="Layer_1-2" data-name="Layer 1"><circle cx="414.82059" cy="414.82059" r="385.32059" style="fill:none;stroke-miterlimit:10;stroke-width:59px;stroke:url(#linear-gradient)"/>
<path d="M414.82059,206.94059c-115.09,0-208.38,93.29-208.38,208.38s93.29,208.38,208.38,208.38,208.38-93.29,208.38-208.38S529.91062,206.94059,414.82059,206.94059Zm113.65,291.41a21.53124,21.53124,0,0,1-21.47,21.47h-14.33a21.53118,21.53118,0,0,1-21.47-21.47v-74.23h-16.22c0,4.19.04,7.91-.01,11.62-.07,5.69-1.57,9.6-3.7,9.83-2.2.24-3.91-3.74-4.07-9.59-.05-1.8-.02-3.62-.02-5.43v-5.83h-4.61q0,11.355,0,22.66c-.02,6.87-1.49,11.09-3.85,11.12-2.37.03-3.92005-4.23-3.94-10.98-.02-7.55,0-15.11,0-22.94h-4.59v26.54c0,3.8.04,7.61-.01,11.41-.08,6.25-1.75,10.46-4.01,10.33-2.18-.13-3.75-4.22-3.77-10.26-.04-12.48-.01-24.96-.01-38.07h-4.59c0,5.79.02,11.35,0,16.9-.03,6.94-1.46,11.07-3.85,11.19-2.53.12-3.92-3.85-3.94-11.27-.02-5.07-.02-10.13995-.04-15.21a14.50915,14.50915,0,0,0-.18006-1.44h-4.41c0,7.82995.05,15.56-.02,23.28-.05,5.84-1.3,9.47-3.3,10.13-2.52.84-4.41-2.87-4.49-9.36-.1-7.92-.02-15.86-.02-24.13h-4.57c0,3.51.05,6.89-.01,10.26-.12,6.74-1.77,10.94-4.12,10.69-2.27-.25-3.62-4.23-3.68-10.95-.03-3.22-.01-6.44-.01-10h-4.71c0,7.1.02,13.94-.01,20.78-.02,6.92-1.5,11.15-3.84,11.17-2.31006.02-3.91-4.37-3.95-11.1-.04-6.84-.01-13.68-.01-20.85h-4.59c0,3.81.05,7.56-.01995,11.3-.1,5.76-1.62,9.53-3.76,9.65-2.14.11-3.78-3.57-4.02-9.2-.09-1.97-.04-3.98-.04-5.97-.01-1.79,0-3.57,0-6.12h-8.32c-.09,0-.18.01-.27.01v74.06a21.53118,21.53118,0,0,1-21.47,21.47h-14.33a21.53119,21.53119,0,0,1-21.47-21.47v-167.06a21.53114,21.53114,0,0,1,21.47-21.47h14.33a21.53114,21.53114,0,0,1,21.47,21.47v89.07c4.02-.14,8.05-.04,12.08-.04h2.64c.24-7.34-.14-15.53,4.24-15.62,2.54-.05,3.22,2.74,3.97,15.32995.63.09,1.29.24006,1.95.28.68.05,1.37.02,2.42.02,0-5.87-.02-11.41,0-16.94.03-6.81,1.55-10.86005,3.99-10.71,2.34.14,3.77,4.1,3.79,10.68.03,5.39.01,10.79.01,16.57h4.58v-14.29c0-6.33-.08-12.68.05-19.01.1-5.43,1.94-9.27,4.04-9.04,2.06.23,3.65,3.95,3.69,9.29.07,10.83.02,21.67.02,32.98h4.6c0-5.18-.01-10.2.01-15.23.01-7.7,1.47-12.03,3.99-11.96,2.48.07,3.78,4.07,3.79,11.65q.03,7.06494.05,14.12a13.42582,13.42582,0,0,0,.2,1.44h4.4v-8.69c.01-14.85-.04-29.7.05-44.54.03-6.12994,1.68-9.92,3.92-9.87,2.27.05,3.7,3.78,3.82,10.03.04,1.63.02,3.26.02,4.89v48.17h4.56v-11.58c.01-7.24-.07-14.49.05-21.72.1-6.03,1.78-10,3.95-9.97,2.19.02,3.79,3.93,3.85,10.07.09,9.05.04,18.11.04,27.17.01,1.93006,0,3.87006,0,6.14h4.7c0-8.02-.05-15.91.02-23.8.05-4.91,1.4-7.62,3.29-8.37,1.74-.69,3.19,1.27,3.92,5.07a39.47487,39.47487,0,0,1,.52,6.84c.07,6.65.03,13.31.03,20.28h4.59c0-5.53-.02-10.9.01-16.27.03-7.06,1.43-11.04,3.82995-11.07,2.38-.02,3.89,4.1,3.96,10.98.05,5.07.05,10.13.08,15.2,0,.16.05.33.23,1.48,3.11,0,6.36-.08,9.63.04v-89.07a21.53114,21.53114,0,0,1,21.47-21.47h14.33a21.53119,21.53119,0,0,1,21.47,21.47Z" 
style="fill:url(#linear-gradient-2)"/></g></g></svg>
